<?xml version="1.0" encoding="utf-8"?>
<!-- Generator: Adobe Illustrator 28.0.0, SVG Export Plug-In . SVG Version: 6.00 Build 0)  -->
<svg version="1.1" id="Layer_1" xmlns="http://www.w3.org/2000/svg" xmlns:xlink="http://www.w3.org/1999/xlink" x="0px" y="0px"
	 viewBox="0 0 1000 1250" style="enable-background:new 0 0 1000 1250;" xml:space="preserve">
<style type="text/css">
	.st0{fill:#325784;}
</style>
<path class="st0" d="M567.8,563.7c0,4.2,0,7.7,0,11.2c0,40.7,0,81.3-0.2,122c0,5.6,1.6,9.9,5.1,14.1c23.1,27.2,45.8,54.7,69.1,81.7
	c12.6,14.7,15.2,31.4,11.4,49.4c-4.2,20-23.9,30.5-42.7,22.4c-28.8-12.5-57.2-25.6-85.6-39c-24.8-11.7-24.7-12.2-49.2-1
	c-27.1,12.3-54.1,24.9-81.1,37.5c-11.9,5.6-23.9,8.4-35-0.5c-4.9-3.9-9.8-9.5-11.4-15.3c-4.9-17.7-4.9-35.3,7.9-50.6
	c22.5-26.8,44.9-53.7,67.6-80.3c5.8-6.8,8.9-13.5,8.8-22.9c-0.6-40.9-0.3-81.8-0.3-122.6c0-2.2,0-4.5,0-7.7
	c-6.7,2.5-12.8,4.6-18.8,7c-82.3,33.7-164.5,67.4-246.8,101.1c-2.1,0.9-4.2,1.5-6.3,2.4c-23.4,9.4-43.2-8.2-43.4-29.4
	c-0.2-14.7-0.2-29.4,0.2-44c0.3-12.8,6.2-23.1,16.8-30.2c19.7-13.1,39.7-25.8,59.7-38.6c19-12.2,38-24.4,57.2-36.3
	c4.1-2.6,5.7-5.5,5.7-10.4c-0.2-21-0.1-42,0.2-63c0.5-30.5,18.4-51.4,48.4-57c31.1-5.8,62.3,14.1,69.5,44.3c0.9,3.7,1,7.5,1.7,12.1
	c12.2-7.4,24.1-14.6,36-21.8c3.7-2.2,7.1-5.1,11-6.5c8.1-3.1,9.5-8.7,9.4-16.8c-0.4-58-0.3-116.1-0.1-174.1
	c0.1-38,29.9-68.1,67-68.2c37-0.2,67.9,29.8,68.2,67.3c0.4,59.8,0.3,119.7,0.1,179.5c0,6,1.8,9.4,7,12.3
	c14.1,8.1,27.8,16.8,41.7,25.2c2.2,1.4,4.7,2.5,7.6,4c0.4-4.2,0.6-7.7,1.2-11.2c4.7-26.6,28.6-46.3,56.9-47
	c29.3-0.7,53.9,17.2,59.8,44c1.2,5.7,1.2,11.7,1.3,17.5c0.2,19,0.4,38-0.1,56.9c-0.2,6.9,2,11.1,7.9,14.8
	c30,18.4,59.8,37.1,89.7,55.8c7.7,4.8,15.2,9.7,22.8,14.7c13.3,8.7,20,21.1,20.1,37c0,11.7-0.6,23.5,0.1,35.2
	c1.6,28.3-23.6,42.5-47.3,32.5c-55.9-23.6-112.5-45.5-168.9-68.1c-31.6-12.7-63.3-25.3-94.9-38C571,564.8,569.7,564.4,567.8,563.7
	L567.8,563.7z M609.3,819.9c0.2-0.3,0.5-0.7,0.7-1.1c-1.2-1.6-2.4-3.2-3.7-4.7c-24.5-28.7-48.8-57.4-73.4-86
	c-3.6-4.2-5.4-8.5-5.3-14c0.3-12.6,0.1-25.3,0.1-37.9c0-136.4,0-272.8,0-409.1c0-15.4-2.5-19.3-17.5-23c-6-1.5-12.6-2-18.7-1.4
	c-15,1.6-19.3,6.6-19.3,20.8c0,151.3,0,302.5,0,453.8c0,2.5-1,5.4-2.5,7.3c-16.7,19.5-33.7,38.8-50.4,58.3
	c-10,11.7-19.7,23.8-29.5,35.7c9-2.9,17.4-6.6,25.6-10.5c22.7-10.6,45.4-21,68-31.9c11-5.3,21.4-5.5,32.4,0
	c12.3,6.2,25,11.6,37.4,17.4C571.9,802.2,590.6,811.1,609.3,819.9L609.3,819.9z M157,630.4c23.5-9.6,45.8-18.7,68.2-27.8
	c67-27.3,134.1-54.6,201.2-81.8c4.3-1.7,6.1-3.8,6-8.8c-0.3-24.4-0.2-48.8-0.3-73.1c0-1.6-0.3-3.3-0.5-5.7
	c-5.7,3.2-10.6,5.8-15.4,8.7c-68.1,41.7-136.2,83.4-204.2,125.3c-17.4,10.8-34.4,22.3-51.4,33.8c-1.7,1.2-3.3,3.8-3.4,5.8
	C156.7,614.3,157,621.7,157,630.4L157,630.4z M567.7,435.5c0,24.1,0,46.7,0,69.2c0,9.7,4.5,16.4,13.6,20.1
	c81.2,32.6,162.5,65.2,243.7,97.8c5.6,2.2,11.2,4.3,17.8,6.9c0-5.2-0.6-9.3,0.1-13.2c2-10.7-2.9-16.5-11.8-21.8
	c-73.6-44.3-147-89.1-220.4-133.7C596.8,452.4,582.8,444.4,567.7,435.5L567.7,435.5z M704.1,469.5c0-17.4,0.5-33.4-0.2-49.3
	c-0.4-9.3-9-16.1-18.4-16.7c-10.2-0.6-19.2,5-20.8,14.4c-1.3,7.9-0.8,16.1-0.8,24.2c0,1.4,1.7,3.2,3,4
	C678.9,453.9,690.9,461.3,704.1,469.5L704.1,469.5z M295.5,467.1c1.5-0.2,2-0.1,2.4-0.3c7.9-4.8,15.4-10.5,23.8-14.2
	c12.5-5.4,16-13.9,14.6-26.9c-1.5-13.6-8.6-22.3-21.1-22.1c-12.1,0.2-19.5,8.7-19.5,22.6C295.4,439.6,295.5,453.1,295.5,467.1
	L295.5,467.1z M526.9,210.4c2.3-16.1-3.1-27.9-15.1-34.7c-9.6-5.4-20.5-4.2-29.6,3.1c-9.1,7.4-12.6,18.6-9,29.5
	C491.1,201.1,508.9,200.6,526.9,210.4L526.9,210.4z"/>
</svg>
