<?xml version="1.0" encoding="utf-8"?>
<!-- Generator: Adobe Illustrator 28.0.0, SVG Export Plug-In . SVG Version: 6.00 Build 0)  -->
<svg version="1.1" id="Layer_1" xmlns="http://www.w3.org/2000/svg" xmlns:xlink="http://www.w3.org/1999/xlink" x="0px" y="0px"
	 viewBox="0 0 32 40" style="enable-background:new 0 0 32 40;" xml:space="preserve">
<g>
	<path d="M3.5,18.6l11.4,6c0.9,0.5,2,0.5,2.9,0s1.5-1.5,1.5-2.6v-0.6l5.6,3c1.1,0.5,2.4,0.5,3.5-0.1c0.9-0.6,1.5-1.6,1.5-2.7l0-11.2
		c0-1.1-0.6-2.1-1.5-2.7c-0.6-0.3-1.2-0.5-1.8-0.5c-0.6,0-1.1,0.1-1.7,0.4l-5.6,3V10c0-1.1-0.6-2.1-1.5-2.6c-0.5-0.3-1-0.4-1.5-0.4
		s-1,0.1-1.4,0.4l-11.4,6c-1.5,0.8-2,2.6-1.2,4.1C2.5,17.9,3,18.4,3.5,18.6z M25.8,9.4c0.5-0.3,1-0.3,1.5,0c0.3,0.2,0.6,0.5,0.6,0.9
		l0,11.3c0,0.4-0.2,0.7-0.6,0.9c-0.5,0.3-1,0.3-1.5,0L19.2,19l0-6.3L25.8,9.4z M4.4,15.1l11.4-6c0.5-0.3,1.1-0.1,1.4,0.4
		c0.1,0.2,0.1,0.4,0.1,0.5l0,12c0,0.4-0.2,0.7-0.5,0.9C16.6,23,16.5,23,16.3,23c-0.2,0-0.3,0-0.5-0.1l-11.4-6
		C3.9,16.6,3.7,16,4,15.5C4.1,15.4,4.2,15.2,4.4,15.1L4.4,15.1z"/>
</g>
</svg>
