<?xml version="1.0" encoding="utf-8"?>
<!-- Generator: Adobe Illustrator 28.0.0, SVG Export Plug-In . SVG Version: 6.00 Build 0)  -->
<svg version="1.1" id="Layer_1" xmlns="http://www.w3.org/2000/svg" xmlns:xlink="http://www.w3.org/1999/xlink" x="0px" y="0px"
	 viewBox="0 0 31.6 31.4" style="enable-background:new 0 0 31.6 31.4;" xml:space="preserve">
<g>
	<path d="M2.8,19l11.4,6c0.9,0.5,2,0.5,2.9,0s1.5-1.5,1.5-2.6v-0.6l5.6,3c1.1,0.5,2.4,0.5,3.5-0.1c0.9-0.6,1.5-1.6,1.5-2.7V10.8
		c0-1.1-0.6-2.1-1.5-2.7c-0.6-0.3-1.2-0.5-1.8-0.5c-0.6,0-1.1,0.1-1.7,0.4l-5.6,3v-0.6c0-1.1-0.6-2.1-1.5-2.6
		c-0.5-0.3-1-0.4-1.5-0.4s-1,0.1-1.4,0.4l-11.4,6c-1.5,0.8-2,2.6-1.2,4.1C1.8,18.3,2.3,18.8,2.8,19z M25.1,9.8c0.5-0.3,1-0.3,1.5,0
		c0.3,0.2,0.6,0.5,0.6,0.9V22c0,0.4-0.2,0.7-0.6,0.9c-0.5,0.3-1,0.3-1.5,0l-6.6-3.5v-6.3L25.1,9.8z M3.7,15.5l11.4-6
		c0.5-0.3,1.1-0.1,1.4,0.4c0.1,0.2,0.1,0.4,0.1,0.5v12c0,0.4-0.2,0.7-0.5,0.9c-0.2,0.1-0.3,0.1-0.5,0.1s-0.3,0-0.5-0.1l-11.4-6
		C3.2,17,3,16.4,3.3,15.9C3.4,15.8,3.5,15.6,3.7,15.5L3.7,15.5z"/>
</g>
</svg>
