<?xml version="1.0" encoding="utf-8"?>
<!-- Generator: Adobe Illustrator 28.0.0, SVG Export Plug-In . SVG Version: 6.00 Build 0)  -->
<svg version="1.1" id="Layer_1" xmlns="http://www.w3.org/2000/svg" xmlns:xlink="http://www.w3.org/1999/xlink" x="0px" y="0px"
	 viewBox="0 0 32 40" style="enable-background:new 0 0 32 40;" xml:space="preserve">
<g>
	<path d="M28.3,13.4l-11.4-6c-0.9-0.5-2-0.5-2.9,0c-0.9,0.5-1.5,1.5-1.5,2.6v0.6l-5.6-3C5.8,7.1,4.5,7.1,3.4,7.7
		c-0.9,0.6-1.5,1.6-1.5,2.7v11.2c0,1.1,0.6,2.1,1.5,2.7c0.6,0.3,1.2,0.5,1.8,0.5c0.6,0,1.1-0.1,1.7-0.4l5.6-3V22
		c0,1.1,0.6,2.1,1.5,2.6c0.5,0.3,1,0.4,1.5,0.4c0.5,0,1-0.1,1.4-0.4l11.4-6c1.5-0.8,2-2.6,1.2-4.1C29.3,14.1,28.8,13.6,28.3,13.4z
		 M6,22.6c-0.5,0.3-1,0.3-1.5,0c-0.3-0.2-0.6-0.5-0.6-0.9V10.4c0-0.4,0.2-0.7,0.6-0.9c0.5-0.3,1-0.3,1.5,0l6.6,3.5v6.3L6,22.6z
		 M27.4,16.9l-11.4,6c-0.5,0.3-1.1,0.1-1.4-0.4c-0.1-0.2-0.1-0.4-0.1-0.5V10c0-0.4,0.2-0.7,0.5-0.9C15.2,9,15.3,9,15.5,9
		c0.2,0,0.3,0,0.5,0.1l11.4,6c0.5,0.3,0.7,0.9,0.4,1.4C27.7,16.6,27.6,16.8,27.4,16.9L27.4,16.9z"/>
</g>
</svg>
